<svg width="25" height="24" viewBox="0 0 25 24" fill="none" xmlns="http://www.w3.org/2000/svg">
<g id="calendar-circle">
<g id="vuesax/outline/calendar-circle">
<g id="calendar-circle_2">
<path id="Vector" d="M12.5 22.75C6.57 22.75 1.75 17.93 1.75 12C1.75 6.07 6.57 1.25 12.5 1.25C18.43 1.25 23.25 6.07 23.25 12C23.25 17.93 18.43 22.75 12.5 22.75ZM12.5 2.75C7.4 2.75 3.25 6.9 3.25 12C3.25 17.1 7.4 21.25 12.5 21.25C17.6 21.25 21.75 17.1 21.75 12C21.75 6.9 17.6 2.75 12.5 2.75Z" fill="#8D55A2"/>
<path id="Vector_2" d="M10.3906 8.58008C9.98063 8.58008 9.64062 8.24008 9.64062 7.83008V5.83008C9.64062 5.42008 9.98063 5.08008 10.3906 5.08008C10.8006 5.08008 11.1406 5.42008 11.1406 5.83008V7.83008C11.1406 8.24008 10.8106 8.58008 10.3906 8.58008Z" fill="#8D55A2"/>
<path id="Vector_3" d="M14.6094 8.58008C14.1994 8.58008 13.8594 8.24008 13.8594 7.83008V5.83008C13.8594 5.42008 14.1994 5.08008 14.6094 5.08008C15.0194 5.08008 15.3594 5.42008 15.3594 5.83008V7.83008C15.3594 8.24008 15.0194 8.58008 14.6094 8.58008Z" fill="#8D55A2"/>
<path id="Vector_4" d="M16.9695 10.8896H8.01953C7.60953 10.8896 7.26953 10.5496 7.26953 10.1396C7.26953 9.72965 7.60953 9.38965 8.01953 9.38965H16.9695C17.3795 9.38965 17.7195 9.72965 17.7195 10.1396C17.7195 10.5496 17.3895 10.8896 16.9695 10.8896Z" fill="#8D55A2"/>
<path id="Vector_5" d="M14 18.4199H11C8.25 18.4199 6.25 16.4199 6.25 13.6699V10.6699C6.25 7.91992 8.25 5.91992 11 5.91992H14C16.75 5.91992 18.75 7.91992 18.75 10.6699V13.6699C18.75 16.4199 16.75 18.4199 14 18.4199ZM11 7.41992C8.75 7.41992 7.75 9.04992 7.75 10.6699V13.6699C7.75 15.2899 8.75 16.9199 11 16.9199H14C16.25 16.9199 17.25 15.2899 17.25 13.6699V10.6699C17.25 9.04992 16.25 7.41992 14 7.41992H11Z" fill="#8D55A2"/>
</g>
</g>
</g>
</svg>
