<svg width="167" height="41" viewBox="0 0 167 41" fill="none" xmlns="http://www.w3.org/2000/svg">
<rect x="0.761719" y="0.432617" width="166" height="40" rx="20" fill="#8D55A2"/>
<path d="M68.4824 25.4326L72.6104 14.2326L74.4664 14.2326L78.5624 25.4326L76.7704 25.4326L75.8104 22.6966L71.2344 22.6966L70.2744 25.4326L68.4824 25.4326ZM71.7144 21.3526L75.3304 21.3526L73.5224 16.2486L71.7144 21.3526ZM83.6763 25.6246C82.9083 25.6246 82.2309 25.4433 81.6443 25.0806C81.0576 24.7179 80.5989 24.2219 80.2683 23.5926C79.9376 22.9633 79.7723 22.2486 79.7723 21.4486C79.7723 20.6486 79.9376 19.9393 80.2683 19.3206C80.5989 18.6913 81.0576 18.2006 81.6443 17.8486C82.2416 17.4859 82.9243 17.3046 83.6923 17.3046C84.3216 17.3046 84.8709 17.4273 85.3403 17.6726C85.8203 17.9179 86.1936 18.2646 86.4603 18.7126L86.4603 13.9126L88.1563 13.9126L88.1563 25.4326L86.6363 25.4326L86.4603 24.2006C86.2043 24.5739 85.8523 24.9046 85.4043 25.1926C84.9563 25.4806 84.3803 25.6246 83.6763 25.6246ZM83.9803 24.1526C84.7056 24.1526 85.2976 23.9019 85.7563 23.4006C86.2256 22.8993 86.4603 22.2539 86.4603 21.4646C86.4603 20.6646 86.2256 20.0193 85.7563 19.5286C85.2976 19.0273 84.7056 18.7766 83.9803 18.7766C83.2549 18.7766 82.6576 19.0273 82.1883 19.5286C81.7189 20.0193 81.4843 20.6646 81.4843 21.4646C81.4843 21.9873 81.5909 22.4513 81.8043 22.8566C82.0176 23.2619 82.3109 23.5819 82.6843 23.8166C83.0683 24.0406 83.5003 24.1526 83.9803 24.1526ZM93.9107 25.6246C93.1427 25.6246 92.4653 25.4433 91.8787 25.0806C91.292 24.7179 90.8333 24.2219 90.5027 23.5926C90.172 22.9633 90.0067 22.2486 90.0067 21.4486C90.0067 20.6486 90.172 19.9393 90.5027 19.3206C90.8333 18.6913 91.292 18.2006 91.8787 17.8486C92.476 17.4859 93.1587 17.3046 93.9267 17.3046C94.556 17.3046 95.1053 17.4273 95.5747 17.6726C96.0547 17.9179 96.428 18.2646 96.6947 18.7126L96.6947 13.9126L98.3907 13.9126L98.3907 25.4326L96.8707 25.4326L96.6947 24.2006C96.4387 24.5739 96.0867 24.9046 95.6387 25.1926C95.1907 25.4806 94.6147 25.6246 93.9107 25.6246ZM94.2147 24.1526C94.94 24.1526 95.532 23.9019 95.9907 23.4006C96.46 22.8993 96.6947 22.2539 96.6947 21.4646C96.6947 20.6646 96.46 20.0193 95.9907 19.5286C95.532 19.0273 94.94 18.7766 94.2147 18.7766C93.4893 18.7766 92.892 19.0273 92.4227 19.5286C91.9533 20.0193 91.7187 20.6646 91.7187 21.4646C91.7187 21.9873 91.8253 22.4513 92.0387 22.8566C92.252 23.2619 92.5453 23.5819 92.9187 23.8166C93.3027 24.0406 93.7347 24.1526 94.2147 24.1526Z" fill="white"/>
</svg>
