<svg width="25" height="24" viewBox="0 0 25 24" fill="none" xmlns="http://www.w3.org/2000/svg">
<path d="M8.0625 5.75C7.6525 5.75 7.3125 5.41 7.3125 5V2C7.3125 1.59 7.6525 1.25 8.0625 1.25C8.4725 1.25 8.8125 1.59 8.8125 2V5C8.8125 5.41 8.4725 5.75 8.0625 5.75Z" fill="#292D32"/>
<path d="M16.0625 5.25C15.9286 5.25 15.8125 5.13386 15.8125 5V2C15.8125 1.86614 15.9286 1.75 16.0625 1.75C16.1964 1.75 16.3125 1.86614 16.3125 2V5C16.3125 5.13386 16.1964 5.25 16.0625 5.25Z" fill="#292D32" stroke="#565556"/>
<path d="M8.0625 3.75H8.04823L8.03398 3.75081C6.6107 3.83214 5.37049 4.09891 4.51726 5.03896C3.67383 5.96821 3.3125 7.44145 3.3125 9.65V15.82C3.3125 17.7227 3.48167 19.2607 4.36165 20.2952C5.26156 21.3531 6.77705 21.75 9.0625 21.75H15.0625C17.3479 21.75 18.8634 21.3531 19.7633 20.2952C20.6433 19.2607 20.8125 17.7227 20.8125 15.82V9.65C20.8125 7.44691 20.4538 5.97337 19.609 5.04268C18.7543 4.10125 17.5089 3.83211 16.0707 3.7508L16.0566 3.75H16.0425H8.0625ZM15.0625 22.25H9.0625C6.31799 22.25 4.8133 21.6023 3.96615 20.5724C3.09963 19.5189 2.8125 17.9432 2.8125 15.82V9.65C2.8125 7.31659 3.21046 5.79508 4.0114 4.8276C4.79655 3.87918 6.05511 3.36295 8.03661 3.25H16.0625H16.0626H16.0626H16.0627H16.0627H16.0628H16.0629H16.0629H16.063H16.063H16.0631H16.0632H16.0632H16.0633H16.0633H16.0634H16.0635H16.0635H16.0636H16.0637H16.0637H16.0638H16.0638H16.0639H16.064H16.064H16.0641H16.0642H16.0642H16.0643H16.0644H16.0644H16.0645H16.0646H16.0646H16.0647H16.0648H16.0648H16.0649H16.0649H16.065H16.0651H16.0652H16.0652H16.0653H16.0654H16.0654H16.0655H16.0656H16.0656H16.0657H16.0658H16.0658H16.0659H16.066H16.066H16.0661H16.0662H16.0663H16.0663H16.0664H16.0665H16.0665H16.0666H16.0667H16.0668H16.0668H16.0669H16.067H16.067H16.0671H16.0672H16.0673H16.0673H16.0674H16.0675H16.0675H16.0676H16.0677H16.0678H16.0678H16.0679H16.068H16.0681H16.0681H16.0682H16.0683H16.0684H16.0684H16.0685H16.0686H16.0687H16.0687H16.0688H16.0689H16.069H16.069H16.0691H16.0692H16.0693H16.0694H16.0694H16.0695H16.0696H16.0697H16.0697H16.0698H16.0699H16.07H16.0701H16.0701H16.0702H16.0703H16.0704H16.0704H16.0705H16.0706H16.0707H16.0708H16.0708H16.0709H16.071H16.0711H16.0712H16.0712H16.0713H16.0714H16.0715H16.0716H16.0716H16.0717H16.0718H16.0719H16.072H16.072H16.0721H16.0722H16.0723H16.0724H16.0725H16.0725H16.0726H16.0727H16.0728H16.0729H16.0729H16.073H16.0731H16.0732H16.0733H16.0734H16.0734H16.0735H16.0736H16.0737H16.0738H16.0739H16.0739H16.074H16.0741H16.0742H16.0743H16.0744H16.0744H16.0745H16.0746H16.0747H16.0748H16.0749H16.075H16.075H16.0751H16.0752H16.0753H16.0754H16.0755H16.0755H16.0756H16.0757H16.0758H16.0759H16.076H16.0761H16.0761H16.0762H16.0763H16.0764H16.0765H16.0766H16.0767H16.0767H16.0768H16.0769H16.077H16.0771H16.0772H16.0773H16.0773H16.0774H16.0775H16.0776H16.0777H16.0778H16.0779H16.078H16.078H16.0781H16.0782H16.0783H16.0784H16.0785H16.0786H16.0786H16.0787H16.0788H16.0789H16.079H16.0791H16.0792H16.0793H16.0793H16.0794H16.0795H16.0796H16.0797H16.0798H16.0799H16.08H16.08H16.0801H16.0802H16.0803H16.0804H16.0805H16.0806H16.0807H16.0807H16.0808H16.0809H16.081H16.0811H16.0812H16.0813H16.0814H16.0814H16.0815H16.0816H16.0817H16.0818H16.0819H16.082H16.0821H16.0821H16.0822H16.0823H16.0824H16.0825H16.0826H16.0827H16.0828H16.0829H16.0829H16.083H16.0831H16.0832H16.0833H16.0834H16.0835H16.0836H16.0836H16.0837H16.0838H16.0839H16.084H16.0841H16.0842H16.0843H16.0843H16.0844H16.0845H16.0846H16.0847H16.0848H16.0849H16.085H16.085H16.0851H16.0852H16.0853H16.0854H16.0855H16.0856H16.0857H16.0857H16.0858H16.0859H16.086H16.0861H16.0862H16.0863H16.0864H16.0864H16.0865H16.0866H16.0867H16.0868H16.0869H16.087H16.087H16.0871H16.0872H16.0873H16.0874H16.0875H16.0876H16.0877H16.0877H16.0878H16.0879H16.088H16.0881H16.0882H16.0883H16.0883H16.0884C18.0699 3.36295 19.3284 3.87918 20.1136 4.8276C20.9145 5.79508 21.3125 7.31659 21.3125 9.65V15.82C21.3125 17.9432 21.0254 19.5189 20.1588 20.5724C19.3117 21.6023 17.807 22.25 15.0625 22.25Z" fill="#292D32" stroke="#565556"/>
<path d="M20.8125 18.3496H3.3125C2.9025 18.3496 2.5625 18.0096 2.5625 17.5996C2.5625 17.1896 2.9025 16.8496 3.3125 16.8496H20.8125C21.2225 16.8496 21.5625 17.1896 21.5625 17.5996C21.5625 18.0096 21.2225 18.3496 20.8125 18.3496Z" fill="#292D32"/>
<path d="M12.0625 8.25C10.8325 8.25 9.7925 8.92 9.7925 10.22C9.7925 10.84 10.0825 11.31 10.5225 11.61C9.9125 11.97 9.5625 12.55 9.5625 13.23C9.5625 14.47 10.5125 15.24 12.0625 15.24C13.6025 15.24 14.5625 14.47 14.5625 13.23C14.5625 12.55 14.2125 11.96 13.5925 11.61C14.0425 11.3 14.3225 10.84 14.3225 10.22C14.3225 8.92 13.2925 8.25 12.0625 8.25ZM12.0625 11.09C11.5425 11.09 11.1625 10.78 11.1625 10.29C11.1625 9.79 11.5425 9.5 12.0625 9.5C12.5825 9.5 12.9625 9.79 12.9625 10.29C12.9625 10.78 12.5825 11.09 12.0625 11.09ZM12.0625 14C11.4025 14 10.9225 13.67 10.9225 13.07C10.9225 12.47 11.4025 12.15 12.0625 12.15C12.7225 12.15 13.2025 12.48 13.2025 13.07C13.2025 13.67 12.7225 14 12.0625 14Z" fill="#292D32"/>
</svg>
