<svg width="25" height="24" viewBox="0 0 25 24" fill="none" xmlns="http://www.w3.org/2000/svg">
<path d="M17.0625 21.25H7.0625C3.4125 21.25 1.3125 19.15 1.3125 15.5V8.5C1.3125 4.85 3.4125 2.75 7.0625 2.75H17.0625C20.7125 2.75 22.8125 4.85 22.8125 8.5V15.5C22.8125 19.15 20.7125 21.25 17.0625 21.25ZM7.0625 4.25C4.2025 4.25 2.8125 5.64 2.8125 8.5V15.5C2.8125 18.36 4.2025 19.75 7.0625 19.75H17.0625C19.9225 19.75 21.3125 18.36 21.3125 15.5V8.5C21.3125 5.64 19.9225 4.25 17.0625 4.25H7.0625Z" fill="#292D32"/>
<path d="M10.0373 11.6925L10.0373 11.6924L10.0333 11.6893L6.90538 9.19092C6.78996 9.0961 6.78249 8.93988 6.85936 8.84526C6.95408 8.72869 7.11107 8.72089 7.20601 8.79803L7.206 8.79804L7.20926 8.80065L10.3383 11.2999C10.3385 11.3 10.3386 11.3001 10.3387 11.3002C10.8234 11.689 11.4524 11.8675 12.0563 11.8675C12.6602 11.8675 13.2892 11.689 13.7738 11.3003C13.7739 11.3002 13.7741 11.3 13.7743 11.2999L16.9033 8.80065L16.9034 8.80067L16.9066 8.79803C17.0142 8.71064 17.169 8.73449 17.2428 8.8319L17.2479 8.83867L17.2532 8.84527C17.3406 8.95283 17.3168 9.10763 17.2194 9.18143L17.2193 9.18129L17.2093 9.18929L14.0793 11.6893L14.0792 11.6892L14.0724 11.6949C13.5362 12.1389 12.8046 12.37 12.0613 12.37C11.3188 12.37 10.5853 12.1393 10.0373 11.6925Z" fill="#292D32" stroke="#565556"/>
</svg>
