<svg width="25" height="25" viewBox="0 0 25 25" fill="none" xmlns="http://www.w3.org/2000/svg">
<path d="M8.75781 19.7959H8.25781C4.25781 19.7959 2.25781 18.7959 2.25781 13.7959V8.7959C2.25781 4.7959 4.25781 2.7959 8.25781 2.7959H16.2578C20.2578 2.7959 22.2578 4.7959 22.2578 8.7959V13.7959C22.2578 17.7959 20.2578 19.7959 16.2578 19.7959H15.7578C15.4478 19.7959 15.1478 19.9459 14.9578 20.1959L13.4578 22.1959C12.7978 23.0759 11.7178 23.0759 11.0578 22.1959L9.55781 20.1959C9.39781 19.9759 9.02781 19.7959 8.75781 19.7959Z" stroke="#8D55A2" stroke-width="1.5" stroke-miterlimit="10" stroke-linecap="round" stroke-linejoin="round"/>
<path d="M7.25781 8.7959H17.2578" stroke="#8D55A2" stroke-width="1.5" stroke-linecap="round" stroke-linejoin="round"/>
<path d="M7.25781 13.7959H13.2578" stroke="#8D55A2" stroke-width="1.5" stroke-linecap="round" stroke-linejoin="round"/>
</svg>
