<svg width="25" height="25" viewBox="0 0 25 25" fill="none" xmlns="http://www.w3.org/2000/svg">
<path d="M12.2764 3.70581C8.96644 3.70581 6.27644 6.39581 6.27644 9.70581V12.5958C6.27644 13.2058 6.01644 14.1358 5.70644 14.6558L4.55644 16.5658C3.84644 17.7458 4.33644 19.0558 5.63644 19.4958C9.94644 20.9358 14.5964 20.9358 18.9064 19.4958C20.1164 19.0958 20.6464 17.6658 19.9864 16.5658L18.8364 14.6558C18.5364 14.1358 18.2764 13.2058 18.2764 12.5958V9.70581C18.2764 6.40581 15.5764 3.70581 12.2764 3.70581Z" stroke="#7D7B7C" stroke-width="1.5" stroke-miterlimit="10" stroke-linecap="round"/>
<path d="M14.1297 3.99584C13.8197 3.90584 13.4997 3.83584 13.1697 3.79584C12.2097 3.67584 11.2897 3.74584 10.4297 3.99584C10.7197 3.25584 11.4397 2.73584 12.2797 2.73584C13.1197 2.73584 13.8397 3.25584 14.1297 3.99584Z" stroke="#7D7B7C" stroke-width="1.5" stroke-miterlimit="10" stroke-linecap="round" stroke-linejoin="round"/>
<path d="M15.2773 19.856C15.2773 21.506 13.9273 22.856 12.2773 22.856C11.4573 22.856 10.6973 22.516 10.1573 21.976C9.61734 21.436 9.27734 20.676 9.27734 19.856" stroke="#7D7B7C" stroke-width="1.5" stroke-miterlimit="10"/>
</svg>
