<svg width="25" height="24" viewBox="0 0 25 24" fill="none" xmlns="http://www.w3.org/2000/svg">
<path d="M12.0625 22.75C6.1325 22.75 1.3125 17.93 1.3125 12C1.3125 6.07 6.1325 1.25 12.0625 1.25C17.9925 1.25 22.8125 6.07 22.8125 12C22.8125 17.93 17.9925 22.75 12.0625 22.75ZM12.0625 2.75C6.9625 2.75 2.8125 6.9 2.8125 12C2.8125 17.1 6.9625 21.25 12.0625 21.25C17.1625 21.25 21.3125 17.1 21.3125 12C21.3125 6.9 17.1625 2.75 12.0625 2.75Z" fill="#292D32"/>
<path d="M12.0625 13.25C11.9286 13.25 11.8125 13.1339 11.8125 13V8C11.8125 7.86614 11.9286 7.75 12.0625 7.75C12.1964 7.75 12.3125 7.86614 12.3125 8V13C12.3125 13.1339 12.1964 13.25 12.0625 13.25Z" fill="#292D32" stroke="#565556"/>
<path d="M11.6092 16.2004L11.6094 16.2003L11.604 16.1876C11.5753 16.1187 11.5625 16.054 11.5625 15.9999C11.5625 15.9457 11.5753 15.881 11.604 15.8122C11.6285 15.7535 11.6621 15.6977 11.7069 15.6443C11.7603 15.5995 11.8161 15.5659 11.8748 15.5414C11.9917 15.4927 12.1333 15.4927 12.2502 15.5414C12.3089 15.5659 12.3647 15.5995 12.4181 15.6443C12.4629 15.6977 12.4965 15.7535 12.521 15.8122C12.5497 15.881 12.5625 15.9457 12.5625 15.9999C12.5625 16.054 12.5497 16.1187 12.521 16.1876L12.5208 16.1875L12.5158 16.2004C12.4961 16.2516 12.4694 16.2961 12.419 16.3548C12.3653 16.3999 12.3092 16.4337 12.2502 16.4583C12.1813 16.487 12.1166 16.4999 12.0625 16.4999C12.0084 16.4999 11.9437 16.487 11.8748 16.4583C11.8158 16.4337 11.7597 16.3999 11.706 16.3548C11.6556 16.2961 11.6289 16.2516 11.6092 16.2004Z" fill="#292D32" stroke="#565556"/>
</svg>
